<?xml version="1.0" encoding="UTF-8" standalone="no"?>
<!DOCTYPE svg PUBLIC "-//W3C//DTD SVG 1.1//EN" "http://www.w3.org/Graphics/SVG/1.1/DTD/svg11.dtd">
<svg width="100" height="100" viewBox="-1 -1 2 2" xmlns="http://www.w3.org/2000/svg" xmlns:xlink="http://www.w3.org/1999/xlink">

<circle cx="0" cy="0" r="1" fill="cornsilk" />

<polyline points="0,0 0.01,0.6" stroke="blue" stroke-width="0.07" fill="none" />
<polyline points="0,0 0.5,0.4" stroke="blue" stroke-width="0.07" fill="none" />
<polyline points="0,0 -1,1" stroke="blue" stroke-width="0.07" fill="none" />
<polyline points="0,0 -0.8,0.2" stroke="blue" stroke-width="0.07" fill="none" />
<polyline points="0,0 -0.4,-0.2" stroke="blue" stroke-width="0.07" fill="none" />
<polyline points="0,0 -0.1,-0.9" stroke="blue" stroke-width="0.07" fill="none" />
<polyline points="0,0 0.8,0.1" stroke="blue" stroke-width="0.07" fill="none" />
<polyline points="0,0 0.8,0.1" stroke="blue" stroke-width="0.07" fill="none" />
<polyline points="0,0 0.4,-0.5" stroke="blue" stroke-width="0.07" fill="none" />

<polyline points="0,0 1,-2" stroke="blue" stroke-width="0.07" fill="none" />

<circle cx="0" cy="0" r="0.1" fill="green" />
<circle cx="0.01" cy="0.6" r="0.1" fill="green" />
<circle cx="0.5" cy="0.4" r="0.1" fill="green" />
<circle cx="-1" cy="1" r="0.1" fill="green" />
<circle cx="-0.8" cy="0.2" r="0.1" fill="green" />
<circle cx="-0.4" cy="-0.2" r="0.1" fill="green" />
<circle cx="-0.1" cy="-0.9" r="0.1" fill="green" />
<circle cx="0.8" cy="0.1" r="0.1" fill="green" />
<circle cx="0.4" cy="-0.5" r="0.1" fill="green" />
</svg>
